<svg width="10" height="13" viewBox="0 0 10 13" fill="none" xmlns="http://www.w3.org/2000/svg">
<path d="M1.408 12.112C1.19467 12.112 1.01867 12.0587 0.88 11.952C0.741333 11.8347 0.661333 11.6907 0.64 11.52C0.618667 11.3387 0.677333 11.1573 0.816 10.976L4.592 5.904V6.576L1.024 1.776C0.885333 1.584 0.821333 1.39733 0.832 1.216C0.853333 1.03467 0.933333 0.890666 1.072 0.783999C1.21067 0.666666 1.38133 0.608 1.584 0.608C1.75467 0.608 1.904 0.650666 2.032 0.735999C2.17067 0.810666 2.30933 0.944 2.448 1.136L5.552 5.392H5.04L8.112 1.136C8.25067 0.944 8.384 0.810666 8.512 0.735999C8.65067 0.650666 8.81067 0.608 8.992 0.608C9.20533 0.608 9.38133 0.666666 9.52 0.783999C9.65867 0.890666 9.73333 1.03467 9.744 1.216C9.76533 1.38667 9.70133 1.57333 9.552 1.776L5.984 6.576V5.904L9.744 10.976C9.88267 11.1573 9.94133 11.3387 9.92 11.52C9.90933 11.6907 9.83467 11.8347 9.696 11.952C9.55733 12.0587 9.376 12.112 9.152 12.112C8.992 12.112 8.84267 12.0693 8.704 11.984C8.56533 11.8987 8.42133 11.7653 8.272 11.584L4.976 7.072H5.584L2.304 11.584C2.16533 11.7653 2.02133 11.8987 1.872 11.984C1.73333 12.0693 1.57867 12.112 1.408 12.112Z" fill="#495057"/>
</svg>
